<?xml version="1.0" encoding="UTF-8" standalone="no"?>
<!-- Created with Inkscape (http://www.inkscape.org/) -->

<svg
   width="280mm"
   height="200mm"
   viewBox="0 0 280 200"
   version="1.1"
   id="svg31971"
   inkscape:version="1.1.1 (c3084ef, 2021-09-22)"
   sodipodi:docname="title1.svg"
   xmlns:inkscape="http://www.inkscape.org/namespaces/inkscape"
   xmlns:sodipodi="http://sodipodi.sourceforge.net/DTD/sodipodi-0.dtd"
   xmlns="http://www.w3.org/2000/svg"
   xmlns:svg="http://www.w3.org/2000/svg">
  <clippath
     id="namedview31973"
     pagecolor="#ffffff"
     bordercolor="#666666"
     borderopacity="1.0"
     inkscape:pageshadow="2"
     inkscape:pageopacity="0.0"
     inkscape:pagecheckerboard="0"
     inkscape:document-units="mm"
     showgrid="false"
     units="mm"
     inkscape:zoom="0.48106061"
     inkscape:cx="535.27559"
     inkscape:cy="561.25984"
     inkscape:window-width="1312"
     inkscape:window-height="762"
     inkscape:window-x="0"
     inkscape:window-y="25"
     inkscape:window-maximized="0"
     inkscape:current-layer="layer1" />
  
    <path
       style="display:inline;fill:none;stroke:#1d1818;stroke-width:0.996;stroke-linecap:round;stroke-linejoin:round;stroke-miterlimit:4;;stroke-opacity:0.98245603;paint-order:markers stroke fill"
       d="m 37.060928,77.154156 -0.182277,-1.417375 -0.182278,-0.70869 -0.364561,-0.354342 -0.303794,-0.708689 -0.486076,-0.118132 h -0.486078 l -0.789871,0.236229 -0.546836,0.472461 -0.729113,0.826799 -0.789874,0.944918 -0.789873,1.535489 -1.032911,1.535489 -0.486074,1.535489 -1.154432,3.189095 -1.133581,4.692444 -0.324646,2.512544 -0.182278,4.842695 0.668354,2.362288 0.546834,0.944913 0.789873,0.472465 0.486077,0.236234 h 0.607594 l 0.668355,-0.236234 0.607595,-0.354348 0.668355,-0.944912 0.911391,-0.944918 0.911392,-1.653603 0.911391,-1.535489 0.972155,-2.834748 0.546834,-1.181147 1.154426,-4.724582 0.850635,-5.43327 0.06077,-3.070977 -0.12152,-2.007948 L 37.85081,73.6107 37.364734,73.020129 36.939418,72.429554 h -0.789884 l -0.546834,0.354343 -0.546835,0.590574 -0.425314,0.708686 -0.303798,1.063031 -0.364557,1.299261 -0.364557,1.653604 -0.425316,2.007949 v 1.417374 1.653603 1.417375 l 0.303798,1.417375 0.243037,1.417374 0.364557,0.944914 0.425316,1.181146 0.486077,0.590576 0.972149,1.299256 0.729117,0.708689 0.789871,0.236229 0.850633,-0.118132 0.546835,-0.118131 0.729112,-0.354342 0.607599,-0.472458 0.607591,-0.708689 1.518989,-2.952863 -3.888606,11.338996 2.308859,-5.078927 1.215191,-2.362288 0.789871,-1.299261 1.032911,-1.653603 0.911391,-1.181146 0.243041,-0.118131 0.303795,-0.354344 -0.668351,1.653604 v 1.299274 l 0.121519,1.299261 0.24304,0.708688 0.425316,0.354343 0.364556,-0.118132 0.486077,-0.118097 0.486076,-0.236227 0.607593,-0.472458 1.701269,-4.13401 1.518982,-4.488356 -1.397462,4.370238 -1.458232,-0.236229 h 4.496204 -3.159492 l -1.883545,6.141959 -0.911391,3.307207 -0.425319,2.362292 0.425319,1.181144 0.425315,0.236225 0.668354,0.11814 0.425318,-0.236237 0.911392,-0.590569 0.546834,-0.826806 0.729115,-1.181143 0.850632,-1.181146 0.789871,-1.653604 0.486076,-0.826802 1.09367,-2.362289 1.397468,-3.425324 1.275953,-3.189092 1.397468,-4.724585 1.822781,-5.669494 -8.202528,25.040285 2.187343,-5.315155 0.546834,-1.181146 1.822783,-3.543439 0.486077,-0.826799 0.668353,-1.063032 0.789872,-0.708689 0.364558,-0.118132 0.425319,0.118132 0.303793,0.236228 0.121518,0.590572 v 0.826799 l -0.06075,1.181146 -0.425318,1.653604 -2.126582,5.197041 -0.303793,1.889831 0.121518,1.181143 0.182278,0.472465 0.668356,0.236237 0.607597,-0.11814 0.303793,-0.354352 0.425319,-0.708685 2.369617,-3.661549 1.154433,-2.834748 -0.607597,2.362291 -0.425315,1.417375 0.182278,1.771718 0.243037,0.944913 0.546834,0.944918 0.972155,0.236229 1.09367,-0.708683 1.15443,-1.535491 0.729114,-2.126061 0.972151,-3.543438 0.182276,-1.889831 0.06076,-2.126063 -0.121517,-1.299258 -0.486072,-0.354347 H 65.13183 l -0.972155,0.70869 -0.972149,1.889831 -1.397468,3.070978 -0.182283,0.708689 -0.546834,0.944914 2.369621,-3.897778 0.729113,-0.590574 0.607598,-0.354343 0.972149,-0.118131 0.607589,0.118131 0.243046,0.354343 0.42531,0.826803 0.546838,0.944914 0.789873,0.944918 h 0.364551 0.789884 l 0.364551,-0.236228 0.729114,-0.472462 0.729114,-1.299256 1.154423,-2.716635 1.579746,-4.724585 0.9114,-2.598517 -10.329109,31.77281 1.944305,-6.4963 1.275941,-4.72458 1.275952,-3.189092 1.518986,-3.543438 1.032907,-2.362289 0.850642,-1.653606 0.789862,-1.535489 0.9114,-1.181143 0.91139,-0.708688 0.668355,0.354342 0.243035,1.181147 -0.06076,2.480405 -0.121517,2.244175 -0.486069,2.00795 -0.668355,1.535488 -1.39747,2.244174 -0.85063,1.535494 -0.911401,0.23623 -0.607586,-0.11814 -0.243045,-0.354337 v -1.653607 l 0.425321,-0.826799 h 0.607597 l 0.486069,-0.236229 0.789883,-0.354346 0.91139,-0.354342 0.911389,-0.236229 0.729114,-0.118132 0.668355,-0.708689 0.91139,-0.708685 2.551905,-2.126064 0.121516,1.063032 0.972148,-0.708686 0.546838,-0.236228 0.789873,-0.708685 0.546838,-0.472462 0.546838,-0.944914 0.668356,-1.535489 0.303793,-1.535487 -0.364563,-0.354347 -0.364551,-0.354343 -1.032918,0.354343 -0.789872,1.063031 -0.789873,1.417375 -1.154423,2.480406 -0.425322,2.598521 -0.42531,3.307206 0.303793,1.771721 0.364562,0.236222 0.668345,0.118103 0.425321,-0.236231 0.850631,-0.236233 1.579745,-1.771713 1.397469,-1.771718 1.275952,-3.307209 1.275945,-2.952864 0.911398,-1.299256 0.911388,-1.181147 0.85063,-0.826803 0.972156,0.354343 0.486083,1.77172 v 1.417375 l -0.668366,2.952864 -2.065828,4.488352 -1.336693,2.007941 -1.032914,0.826809 -0.729109,-0.590578 -0.607597,-2.598516 0.303793,-2.480405 -0.243045,4.015894 0.303803,0.708691 0.607598,0.23622 h 0.972146 l 0.789872,-0.590568 4.192413,-8.268018 1.15442,-3.779663 1.822804,-5.787616 2.30884,-7.204987 0.36457,-0.472459 -7.777219,23.386681 -0.182274,2.244177 0.06074,0.944917 0.243032,0.11813 h 0.425335 l 0.607579,-0.35435 0.789892,-0.82679 1.397451,-2.007953 1.640502,-3.189093 2.551902,-6.496298 -2.977217,8.149901 -0.364557,2.598522 v 1.771711 l 0.486073,0.35435 0.607621,-0.11813 1.03289,-1.063032 2.36962,-3.661551 1.33671,-3.070979 0.85063,-2.362291 1.27595,-2.007946 0.9114,-1.063032 0.78987,-0.236228 h 0.72911 l 0.36455,1.889835 -0.30378,1.181142 0.42529,-1.889831 -0.48606,-1.181146 -1.15443,0.118131 -1.51899,1.771721 -1.51899,2.952859 -1.0329,3.661552 -0.18228,3.307211 0.78986,1.535493 1.39747,0.118092 1.45822,-1.181146 0.85064,-1.417374 1.09368,-1.29926 1.19788,-2.533225 1.33187,-3.173745"
       id="path25087"
       sodipodi:nodetypes="cccccccccccccccccccccccccccccccccccccccccccccccccccccccccccccccccccccccccccccccccccccccccccccccccccccccccccccccccccccccccccccccccccccccccccccccccccccccccccccccccccccccccccccccccccccccccccccccccccccccccccccccccccccccccccccccccccccccccccccccccccccccccccccccccccccccccccccccccccccccccccc" />
    <path
       style="display:inline;fill:none;stroke:#1d1818;stroke-width:0.996;stroke-linecap:round;stroke-linejoin:round;stroke-miterlimit:4;;stroke-opacity:0.98245603;paint-order:markers stroke fill"
       d="m 98.98612,80.335356 -0.42965,0.208795 -0.12885,0.501117 -0.0646,0.501118 0.0646,0.459358 0.12885,0.417596 0.2578,0.167023 h 0.19331 l 0.21483,-0.208795 0.10733,-0.167057 0.043,-0.167022 0.043,-0.250567 v -0.250568 -0.292306 l -0.0859,-0.417594 -0.21481,-0.334079 z"
       id="path26180" />
    <path
       style="display:inline;fill:none;stroke:#1d1818;stroke-width:0.996;stroke-linecap:round;stroke-linejoin:round;stroke-miterlimit:4;;stroke-opacity:0.98245603;paint-order:markers stroke fill"
       d="m 125.05417,95.360787 -0.32223,0.876954 -0.19333,0.584638 -0.2363,0.459359 -0.40816,0.626394 -0.27925,0.375841 -0.68742,0.87696 -0.77335,0.501118 -0.85927,0.375829 -0.64444,0.0835 -0.83779,-0.125281 -0.85927,-0.668161 -0.88074,-1.16927 -0.92373,-1.294554 -0.70889,-1.294554 -0.73037,-1.628633 -0.2578,-1.294555 -0.17186,-0.709916 -0.15036,-1.169274 -0.10734,-1.54511 -0.0646,-1.670392 -0.0214,-1.712154 0.12885,-1.336315 0.45114,-1.54511 0.55851,-1.628633 0.30074,-0.709915 0.34372,-0.58464 0.42962,-0.417596 0.25781,-0.125284 0.57999,-0.125283 0.45109,0.375841 0.0859,0.501114 0.10733,0.626398 v 0.918716 l -0.15036,1.252793 -0.3437,0.918717 -0.55853,1.043994 -0.68742,0.876957 -1.37483,1.336314 -1.31038,1.002235 -0.83778,0.960473 -0.73038,1.294554 -0.40815,1.962712 -0.27925,1.795671 0.043,1.920949 0.23628,1.336317 0.40814,1.043994 0.68743,1.002234 0.58001,0.417603 0.73038,0.08346 0.88075,-0.417606 0.90223,-0.668156 0.53704,-0.835193 0.66593,-1.127515 1.35336,-2.756149 0.90222,-2.213267 0.68743,-1.419835 0.66592,-1.002235 0.45111,-0.334078 0.62299,-0.125284 0.68742,0.334079 0.25776,0.709915 -0.17186,0.208794 -0.25778,-0.292305 -0.4726,-0.292306 -0.64445,-0.04178 -0.66594,0.250568"
       id="path26182" />
    <path
       style="display:inline;fill:none;stroke:#1d1818;stroke-width:0.996;stroke-linecap:round;stroke-linejoin:round;stroke-miterlimit:4;;stroke-opacity:0.98245603;paint-order:markers stroke fill"
       d="m 137.04285,79.027745 0.0607,1.712661 0.27342,0.590572 0.27341,0.649631 0.42534,0.295276 0.54684,0.295276 1.12404,-0.236227 0.82025,-0.885859 1.18479,-1.653604 0.60762,-1.889835 0.0304,-2.067 -0.21267,-1.712663 -0.4557,-0.885858 -0.9114,-0.590574 -0.7291,0.05905 -0.69875,0.236229 -0.881,0.472457 -1.67088,1.299261 -1.54937,1.948891 -1.57974,2.539461 -1.15445,2.362293 -0.78985,2.244174 -0.72913,2.362292 -0.66834,2.657576 -0.39494,2.539462 -0.21266,2.775694 0.18227,2.59852 0.54684,1.830772 0.78989,1.181144 0.97214,0.767743 0.69874,0.17718 0.75949,-0.17718 0.881,-0.531511 0.82026,-0.590569 0.85062,-1.181149 0.85063,-1.47643 0.45571,-1.712662 0.33418,-1.535489 0.12157,-1.889831 0.0911,-2.067005 -0.36456,-1.12209 -0.30381,-0.767745 -1.15443,-0.531513"
       id="path26349" />
    <path
       style="display:inline;fill:none;stroke:#1d1818;stroke-width:0.996;stroke-linecap:round;stroke-linejoin:round;stroke-miterlimit:4;;stroke-opacity:0.98245603;paint-order:markers stroke fill"
       d="m 138.34917,98.339443 1.70126,-1.299258 1.3671,-2.067005 0.82025,-2.126064 0.82024,-2.067004 1.97469,-5.492325 2.27847,-6.732531 1.61015,-5.078923 -2.09621,5.728553 -0.85063,2.893809 -1.61013,4.901751 -2.03545,5.787615 -1.82278,6.141956 1.00253,-2.539462 0.94176,-2.421351 0.72912,-1.653603 0.94178,-2.007946 0.66835,-1.29926 0.66837,-1.240202 0.69871,-0.944918 0.57722,-0.590571 0.63799,-0.354346 h 0.48607 l 0.42531,0.295277 0.0607,0.708686 v 0.944917 l -0.24304,1.594547 -0.39493,1.181147 -0.7595,1.948888 -0.63798,1.71266 -0.60759,2.007947 -0.15197,1.358318 v 1.41737 l 0.27342,0.295279 h 0.3038 0.30382 l 0.42529,-0.118093 0.36457,-0.177186 0.54683,-0.708683 0.63797,-0.944914 1.06329,-1.594549 0.94178,-1.948889 1.12404,-2.657577 1.0633,-2.716635 0.57721,-1.476434 -0.88101,3.366265 -1.12405,3.661553 -0.72912,2.362293 -0.30378,1.889831 0.0607,1.122087 0.36455,0.05901 0.66835,-0.118129 0.66836,-0.708692 0.78987,-1.003973 0.72912,-0.885858 0.66834,-1.358316 0.57722,-1.003973 1.0329,-2.716635 1.88355,-4.842699 -3.49367,11.457112 1.48862,-4.13401 0.51645,-0.708685 0.4557,-0.88586 0.6076,-1.181145 0.82025,-1.594549 0.69872,-1.181141 0.69873,-1.29926 1.15444,-0.70869 0.18229,-0.354344 -0.60761,1.771718 v 1.417375 l 0.0607,1.417375 0.39496,0.47246 0.42531,0.413399 0.69873,-0.413399 0.45571,-0.236229 1.42785,-1.948887 -1.15444,2.362289 -0.36456,1.299261 -0.33418,1.535489 -0.27341,1.771717 v 0.944917 l 0.18226,1.240202 0.57722,1.003973 0.48609,0.177187 h 0.51645 l 0.72911,-0.472465 0.78988,-0.76774 0.88102,-1.535489 0.69873,-1.94889 0.60759,-1.771719 0.72911,-2.775693 0.0607,-1.47643 -0.0607,-1.358319 -0.3038,-0.944915 -0.39493,-0.47246 -0.42532,-0.17718 -0.63798,0.354343 -1.06329,0.944915 -0.63796,1.003975 -0.72911,1.358317 0.94177,-1.003973 0.51644,-0.177181 0.57722,-0.236228 0.42531,0.05905 h 0.33418 l 0.72912,0.17718 0.69873,0.413402 0.45571,0.295278 0.24303,0.649629 0.24303,0.885862 0.24305,0.413399 0.36455,0.531515 0.54684,0.236229 0.39493,-0.05905 0.51646,-0.177179 0.39494,-0.354346 0.5772,-0.472457 0.78987,-1.47643 3.18988,-9.56728 0.48609,-0.236229 -7.04811,20.020419 -4.0405,11.338997 0.15197,0.64964 0.54681,-0.29528 0.36458,-0.88587 1.30633,-4.72458 1.61012,-5.25609 1.24557,-3.425332 1.00253,-3.248148 1.03292,-2.067004 0.57722,-1.003976 0.51644,-1.181146 0.51645,-1.003974 0.57723,-1.063028 0.48607,-0.413402 0.60759,-0.590574 0.78988,-0.118098 0.72911,0.885863 0.0911,1.830773 -0.24303,3.366265 -0.75951,1.94889 -0.82026,1.948891 -0.75948,1.122087 -0.69874,1.240205 -0.72911,0.76774 -0.57722,0.236232 -0.39493,0.05901 -0.4557,-0.236233 -0.15197,-0.295275 -0.15196,-0.944918 0.0911,-0.354342 0.33417,-0.64963 0.36455,-0.118132 0.6076,-0.472457 0.97216,-0.236228 0.88101,-0.472458 1.4886,-0.472457 1.18481,-0.472459 0.97215,-0.944915 1.73165,-2.303233 1.03289,-2.126065 0.85066,-2.539461 0.33416,-0.236229 -2.70377,7.441215 -1.33672,4.429295 1.00253,-2.657576 0.94176,-2.007946 0.57722,-0.590574 0.57721,-1.417376 0.94177,-1.653603 1.03292,-1.653603 1.03292,-1.712663 0.94178,-0.59057 -0.57722,1.417375 -0.21267,1.29926 -0.0304,1.181142 0.24304,0.944918 0.51645,0.472461 0.66836,-0.05905 0.91138,-0.531516 0.75951,-1.29926 1.27594,-2.067005 0.85063,-1.122087 0.97216,-0.64963 -1.70127,1.653604 -0.9114,1.889831 -0.88102,1.653603 -0.60758,2.067005 -0.33419,2.598521 -0.0607,2.303233 0.36457,1.12209 0.48606,0.118127 0.72912,-0.236228 1.06329,-1.29926 1.18482,-2.185118 0.78986,-1.594544 0.63799,-1.771721 0.2734,-1.653604 0.21266,-1.299256 0.0304,-1.122091 -0.0911,-0.944918 -0.39493,-0.885858 -0.69875,-0.531513 0.88103,0.8268 0.2734,0.944917 0.1823,1.417376 -0.88102,5.078923 2.06582,-7.264043 0.24304,0.118132 -2.91645,9.271992 -0.30379,1.889831 v 1.063032 l 0.27341,0.354348 0.4253,0.177175 0.66836,-0.177175 0.57722,-0.590576 0.39493,-0.767745 0.69873,-1.063032 0.51646,-0.944918 0.82026,-1.476429 0.69873,-1.653604 0.72912,-1.889835 0.54684,-1.47643 0.97215,-1.653602 0.69872,-0.885859 0.88102,-0.944917 0.6076,-0.118133 0.51644,0.177182 0.39495,0.236227 0.18227,0.708685 -0.15197,1.417376 v -0.708689 l -0.0304,-0.944915 -0.57721,-0.826803 -1.30633,0.413402 -1.30633,1.830776 -1.09366,2.480406 -0.75952,2.067002 -0.60759,2.480405 0.0607,2.126064 0.48606,1.47643 0.63797,0.531521 h 0.69875 l 0.85063,-0.295279 0.54684,-0.590574 1.24556,-1.476434 1.70126,-2.53946 1.03292,-2.126061 1.30633,-3.130037 2.12658,-6.496301 0.33419,-1.358317 -1.54937,4.724582 -1.519,0.118097 4.70886,0.05905 h -3.00759 l -1.12405,2.775695 -1.09367,3.484379 -0.97214,2.83475 -0.24306,1.771717 0.0911,1.29926 0.2734,0.531516 0.42533,0.413397 0.54684,0.236233 0.63798,-0.236233 0.85062,-0.8268 1.42785,-2.244176 1.76203,-3.307208 1.12405,-2.067005 1.61013,-4.429293 0.15196,0.649631 -0.75948,2.007946 -1.61013,4.429297 -0.66835,2.775689 -0.3038,1.830777 0.0607,0.885864 0.3038,0.413395 h 0.30381 l 0.36455,-0.05901 0.27341,-0.295278 0.63797,-0.590569 0.39494,-0.590575 0.63798,-0.885858 0.85064,-1.240203 0.78988,-1.653606 0.75948,-1.771717 0.57721,-1.535489 0.69874,-1.476429 0.75949,-1.240206 0.6076,-0.944913 0.66836,-0.70869 0.51645,-0.472457 h 0.57721 l 0.42531,0.05905 0.51647,0.59057 0.21265,1.063032 -0.15197,0.590571 V 87.53192 l -0.18227,-0.826801 -0.30381,-0.531516 -0.75948,-0.17718 -0.75951,0.236228 -1.30631,1.830777 -0.82026,1.476434 -0.9114,2.834749 -0.60758,2.244174 -0.12157,1.535489 v 1.29926 l 0.30378,1.122091 0.66836,0.531517 0.881,0.05901 0.7595,-0.236235 0.51647,-0.413402 0.7595,-0.826799 0.75948,-0.885859 0.48608,-0.88586 0.85063,-1.535487 0.75948,-1.417375 1.18482,-3.011923"
       id="path26464" />
    <path
       style="display:inline;fill:none;stroke:#1d1818;stroke-width:0.996;stroke-linecap:round;stroke-linejoin:round;stroke-miterlimit:4;;stroke-opacity:0.98245603;paint-order:markers stroke fill"
       d="m 212.52062,79.536139 -0.24304,0.05905 -0.18226,0.118131 -0.12158,0.354343 -0.24303,0.708689 0.12157,0.413398 0.27342,0.354346 0.30379,-0.05905 0.42531,-0.590576 -0.0304,-0.590571 -0.12157,-0.354346 z"
       id="path26612" />
    <path
       style="display:inline;fill:none;stroke:#1d1818;stroke-width:0.996;stroke-linecap:round;stroke-linejoin:round;stroke-miterlimit:4;;stroke-opacity:0.98245603;paint-order:markers stroke fill"
       d="m 154.28166,80.909457 -0.24303,0.05905 -0.18228,0.118131 -0.12157,0.354344 -0.24304,0.708688 0.12157,0.413399 0.27342,0.354345 0.3038,-0.05905 0.42532,-0.590575 -0.0304,-0.590571 -0.12158,-0.354347 z"
       id="path26612-3" />
    <path
       style="display:inline;fill:none;stroke:#1d1818;stroke-width:0.996;stroke-linecap:round;stroke-linejoin:round;stroke-miterlimit:4;;stroke-opacity:0.98245603;paint-order:markers stroke fill"
       d="m 231.4023,77.354534 -0.0607,1.181143 0.12157,0.708689 0.15197,0.531516 0.18227,0.472455 0.36456,0.354347 0.39492,0.413398 0.33419,0.118097 0.42532,-0.05905 0.48608,-0.05905 0.51644,-0.295277 0.6076,-0.590571 0.48607,-0.826803 0.63799,-1.181143 0.30379,-1.003977 0.15196,-1.29926 0.12158,-1.594543 -0.0304,-1.003974 -0.15197,-0.708689 -0.18227,-0.354342 -0.18229,-0.354343 -0.63796,-0.354346 -0.42533,-0.17718 h -0.72911 l -0.91139,0.354343 -0.78987,0.531516 -1.27596,1.122087 -1.76201,2.185119 -1.45824,2.53946 -1.76201,3.602495 -1.09367,3.425324 -0.66837,2.539462 -0.33418,2.421347 -0.12157,2.775694 0.24305,2.598521 0.48606,1.712658 0.51646,1.063032 0.51646,0.590571 0.63796,0.236233 0.69875,0.177175 h 0.36456 l 0.94177,-0.236228 0.54682,-0.295277 0.72914,-0.8268 0.75948,-1.003972 0.66837,-1.35832 0.7291,-1.771717 0.21266,-1.358315 0.24303,-1.299264 v -1.47643 l -0.12158,-1.240202 -0.0304,-0.826803 -0.21266,-0.649631 -0.48607,-0.649629 -0.69873,-0.354343"
       id="path26614" />
    <path
       style="display:inline;fill:none;stroke:#1d1818;stroke-width:0.996;stroke-linecap:round;stroke-linejoin:round;stroke-miterlimit:4;;stroke-opacity:0.98245603;paint-order:markers stroke fill"
       d="m 239.75797,90.060239 v -1.240203 l -0.0607,-1.181145 -0.30378,-0.8268 -0.48609,-0.590575 -0.36457,-0.05905 h -0.54682 l -0.54684,0.531516 -0.48609,0.531515 -0.82025,1.181146 -0.54682,1.240202 -0.66836,1.653603 -0.42531,1.29926 -0.33418,1.594548 -0.24304,1.594544 -0.0607,1.535489 0.0911,1.063032 0.27341,0.590578 0.48607,0.354337 0.63798,-0.177174 0.54683,-0.531515 0.42533,-0.531516 0.45569,-0.70869 0.97216,-1.771717 0.57721,-0.944918 1.24557,-3.425321 0.48606,-1.771717 0.91141,-2.42135 0.48607,-0.118133 -0.63797,1.771721 -1.18481,3.366263 -1.06328,3.307209 -0.36457,1.535489 -0.21265,1.47643 0.0304,0.767742 0.33417,0.413406 0.36456,0.118128 0.3038,-0.05901 0.36457,-0.177173 0.33416,-0.29528 0.33418,-0.413404 0.27341,-0.413401 0.3038,-0.472457 0.39494,-0.649631 0.36455,-0.708688 0.48608,-1.003973 0.7595,-1.417375 1.12404,-2.480406 1.30634,-3.838722 0.4557,-0.708686 -0.0607,0.767745 -0.51645,1.653602 -0.97214,2.362292 -0.97215,2.126061 -0.66837,2.303234 -0.78986,2.539464 v 0.472461 l 0.24303,0.05901 0.27341,-1.299265 0.54683,-1.712659 0.94178,-2.185118 1.0329,-1.948892 0.54684,-1.063031 0.78988,-1.29926 0.63799,-1.181146 1.00252,-1.417375 0.42533,-0.17718 0.27341,-0.236229 -0.51647,1.653607 0.0304,1.653603 0.30379,1.003973 0.33418,0.531516 0.45569,0.17718 0.42531,-0.05905 0.4557,-0.354342 0.21267,-0.118098 1.15444,-1.653603 0.85063,-1.476433 0.78986,-1.003973 0.66836,-0.708686 0.78988,-0.354346 0.39492,0.17718 0.36457,0.413402 0.12157,0.64963 -0.0911,0.885859 -0.24304,0.8268 -0.57723,1.181146 -0.45569,0.47246 -0.66834,0.8268 -0.88101,0.47246 -0.72913,0.649627 -0.91138,0.17718 0.0607,-1.122087 0.57722,-2.00795 -0.88102,2.362292 -0.57721,2.716636 v 2.126057 l 0.0911,1.594549 0.54682,0.826798 0.66836,0.295278 0.82026,-0.295278 1.30632,-0.885857 0.69873,-0.944915 1.70128,-2.657578 0.91138,-1.771718 1.33672,-3.425322"
       id="path26731" />
   </clippath>
</svg>
